# xmcd
#
# Track frame offsets:
#	150
#	16502
#	32980
#	56940
#
# Disc length: 953 seconds
#
# Revision: 3
# Processed by: cddbd v1.5.2PL0 Copyright (c) Steve Scherf et al.
# Submitted via: audiograbber 1.83.01
#
DISCID=2b03b704
DTITLE=EX-IT - Body Talk
DYEAR=1996
DGENRE=Dance
TTITLE0=Body Talk  - RADIO-VIDEO MIX
TTITLE1=Body Talk - RAGGA BEATS MIX 7"
TTITLE2=Body Talk - ORIGINAL 12" MIX
TTITLE3=Body Sax - Body Sax
EXTD=
EXTT0=
EXTT1=
EXTT2=
EXTT3=
PLAYORDER=
